<?xml version="1.0" encoding="UTF-8" standalone="no"?>
<!DOCTYPE svg PUBLIC "-//W3C//DTD SVG 1.1//EN" "http://www.w3.org/Graphics/SVG/1.1/DTD/svg11.dtd">
<svg width="100%" height="100%" viewBox="0 0 400 400" version="1.1" xmlns="http://www.w3.org/2000/svg" xmlns:xlink="http://www.w3.org/1999/xlink" xml:space="preserve" xmlns:serif="http://www.serif.com/" style="fill-rule:evenodd;clip-rule:evenodd;stroke-linejoin:round;stroke-miterlimit:2;">
    <g id="Artboard1" transform="matrix(1.20846,0,0,1.21212,2.41692,-35.1515)">
        <rect x="-2" y="29" width="331" height="330" style="fill:none;"/>
        <clipPath id="_clip1">
            <rect x="-2" y="29" width="331" height="330"/>
        </clipPath>
        <g clip-path="url(#_clip1)">
            <g transform="matrix(0.861979,0,0,0.859375,-2,1.5)">
                <path d="M59.25,353.5L117,353.5L117,180L59.25,180L59.25,353.5ZM120.75,126.5C120.5,109.5 108.25,96.5 88.5,96.5C68.75,96.5 55.75,109.5 55.75,126.5C55.75,143 68.25,156.5 87.75,156.5L88,156.5C108.25,156.5 120.75,143 120.75,126.5ZM267,353.5L324.75,353.5L324.75,254C324.75,200.75 296.25,176 258.25,176C227.25,176 213.5,193.25 206,205.25L206.5,205.25L206.5,180L148.75,180C148.75,180 149.5,196.25 148.75,353.5L206.5,353.5L206.5,256.5C206.5,251.5 206.75,246.25 208.25,242.5C212.5,232.25 222,221.5 238,221.5C258.75,221.5 267,237.25 267,260.75L267,353.5ZM384,104L384,344C384,383.75 351.75,416 312,416L72,416C32.25,416 0,383.75 0,344L0,104C0,64.25 32.25,32 72,32L312,32C351.75,32 384,64.25 384,104Z" style="fill:rgb(240,240,240);fill-rule:nonzero;"/>
            </g>
        </g>
    </g>
</svg>
